<mxfile host="app.diagrams.net" modified="2023-06-09T15:42:49.899Z" agent="Mozilla/5.0 (Windows NT 10.0; Win64; x64) AppleWebKit/537.36 (KHTML, like Gecko) Chrome/113.0.0.0 Safari/537.36 OPR/99.0.0.0" version="21.3.8" etag="0W2gP8uDPc-Us-nS_eTn" type="github">
  <diagram name="Страница 1" id="UeNsarL1_2uWOVCxicny">
    <mxGraphModel>
      <root>
        <mxCell id="0" />
        <mxCell id="1" parent="0" />
      </root>
    </mxGraphModel>
  </diagram>
</mxfile>
